<?xml version="1.0" encoding="ISO-8859-1" standalone="yes"?>
<svg width="541.914" height="598.53">
  <defs> 
    <marker id="ArrowEnd" viewBox="0 0 10 10" refX="0" refY="5" 
     markerUnits="strokeWidth" 
     markerWidth="4" 
     markerHeight="3" 
     orient="auto"> 
        <path d="M 0 0 L 10 5 L 0 10 z" /> 
    </marker>
    <marker id="ArrowStart" viewBox="0 0 10 10" refX="10" refY="5" 
     markerUnits="strokeWidth" 
     markerWidth="4" 
     markerHeight="3" 
     orient="auto"> 
        <path d="M 10 0 L 0 5 L 10 10 z" /> 
    </marker> </defs>
<g>
<path style="stroke:none; fill-rule:evenodd; fill:#ec2a32" d="M 541.914 0L 541.914 325.379C 541.914 689.524 0 689.637 0 325.379L 0 0L 541.914 0"/>
<path style="stroke:none; fill-rule:evenodd; fill:#222222" d="M 134.07 148.18C 165.746 158.86 202.343 159.442 241.718 162.446C 241.222 126.153 236.941 90.059 228.468 53.766C 253.925 69.11 288.687 68.266 313.621 53.618C 308.203 89.911 300.648 126.157 299.214 162.45C 335.222 161.075 371.918 157.036 403.941 149.688C 395.718 176.969 392.547 206.735 404.257 234.02C 370.308 226.188 335.226 222.336 299.277 221.774C 300.367 285.598 304.164 349.422 311.238 413.25C 285.824 432.02 258.925 434.27 229.519 414.997C 238.242 351.422 241.464 285.348 241.714 221.77C 204.336 221.704 167.445 227.184 134.054 234.817C 147.472 208.661 149.605 178.95 134.066 148.18"/>
<path style="stroke:none; fill-rule:evenodd; fill:#3ba66d" d="M 72.3125 518.274C 93.8984 466.399 117.402 483.727 142.3 456.274C 160.425 435.735 183.464 441.805 202.675 423.575C 233.3 390.571 246.132 434.149 297.386 418.821C 333.941 395.938 348.898 435.637 377.89 442.008C 398.16 440.875 413.828 469.489 437.082 477.68C 464.156 489.586 461.211 501.348 471.464 516.344C 368.242 625.196 176.636 625.868 72.3086 518.27"/>
</g>
</svg>